<svg width="100" height="100" viewBox="0 0 100 100" fill="none" xmlns="http://www.w3.org/2000/svg">
<path d="M5.8125 48.1945L6.122 37.7489C7.51474 37.7747 8.67537 37.7618 9.60386 37.7102C10.5324 37.6586 11.2287 37.3878 11.693 36.8978C12.1572 36.4077 12.3894 35.5179 12.3894 34.2283V18.0957H24.9241V36.7817C24.9241 39.0514 24.6017 40.9213 23.9569 42.3914C23.3379 43.8615 22.4481 45.0221 21.2875 45.8732C20.1526 46.6986 18.7857 47.2918 17.1866 47.6529C15.6133 48.0139 13.8595 48.2074 11.9251 48.2332C10.0165 48.2848 7.97899 48.2719 5.8125 48.1945Z" fill="#B4FFAD"/>
<path d="M38.4365 23.3572C42.1505 23.3572 45.1037 24.1696 47.2959 25.7945C49.4882 27.4194 50.636 29.689 50.7391 32.6035V37.0138H37.7402V39.1803C37.7402 39.8767 38.0883 40.2249 38.7847 40.2249C39.4811 40.2249 39.8293 39.8767 39.8293 39.1803V38.1744L50.6231 38.7548V39.5672C50.6231 42.3785 49.5527 44.5708 47.412 46.1441C45.2713 47.6915 42.2795 48.4653 38.4365 48.4653C35.032 48.4653 32.311 47.6915 30.2735 46.1441C28.2618 44.5966 27.0367 42.4301 26.5982 39.6446C26.5208 39.3093 26.4563 38.7934 26.4048 38.0971C26.379 37.4007 26.3661 36.5883 26.3661 35.6598C26.3661 34.7571 26.379 33.9575 26.4048 33.2612C26.4563 32.539 26.5208 32.0103 26.5982 31.675C27.0109 29.07 28.236 27.0325 30.2735 25.5624C32.311 24.0922 35.032 23.3572 38.4365 23.3572ZM37.7402 32.8356V34.2283H39.8293V32.8356C39.8293 32.1392 39.4811 31.791 38.7847 31.791C38.0883 31.791 37.7402 32.1392 37.7402 32.8356Z" fill="#B4FFAD"/>
<path d="M64.014 23.3572C67.728 23.3572 70.6812 24.1696 72.8734 25.7945C75.0657 27.4194 76.2134 29.689 76.3166 32.6035V37.0138H63.3177V39.1803C63.3177 39.8767 63.6658 40.2249 64.3622 40.2249C65.0586 40.2249 65.4068 39.8767 65.4068 39.1803V38.1744L76.2006 38.7548V39.5672C76.2006 42.3785 75.1302 44.5708 72.9895 46.1441C70.8488 47.6915 67.857 48.4653 64.014 48.4653C60.6095 48.4653 57.8885 47.6915 55.851 46.1441C53.8392 44.5966 52.6141 42.4301 52.1757 39.6446C52.0983 39.3093 52.0338 38.7934 51.9823 38.0971C51.9565 37.4007 51.9436 36.5883 51.9436 35.6598C51.9436 34.7571 51.9565 33.9575 51.9823 33.2612C52.0338 32.539 52.0983 32.0103 52.1757 31.675C52.5884 29.07 53.8135 27.0325 55.851 25.5624C57.8885 24.0922 60.6095 23.3572 64.014 23.3572ZM63.3177 32.8356V34.2283H65.4068V32.8356C65.4068 32.1392 65.0586 31.791 64.3622 31.791C63.6658 31.791 63.3177 32.1392 63.3177 32.8356Z" fill="#B4FFAD"/>
<path d="M93.3829 38.5613L94.1953 47.9624C93.2668 48.1429 92.3641 48.2719 91.4872 48.3492C90.6103 48.4524 89.7721 48.504 88.9725 48.504C87.1413 48.504 85.5165 48.2332 84.0979 47.6915C82.6794 47.1241 81.5703 46.1312 80.7708 44.7126C79.9713 43.2683 79.5715 41.2436 79.5715 38.6387V32.2553H77.4824V23.8988H79.6489L80.2679 20.7651L90.7135 19.7206V23.8988H93.499V32.2553H90.7135V36.124C90.7135 37.0783 90.894 37.736 91.2551 38.0971C91.6162 38.4324 92.1191 38.6 92.7639 38.6C92.8413 38.6 92.9315 38.6 93.0347 38.6C93.1637 38.6 93.2797 38.5871 93.3829 38.5613Z" fill="#B4FFAD"/>
<path d="M37.7188 36.9727H50.9439V48.8449C50.9439 48.9137 50.8882 48.9694 50.8195 48.9694H47.6749C42.1763 48.9694 37.7188 44.5119 37.7188 39.0132V36.9727Z" fill="#010412"/>
<path d="M63.2734 36.9727H77.4529V48.8449C77.4529 48.9137 77.3972 48.9694 77.3285 48.9694H73.2296C67.731 48.9694 63.2734 44.5119 63.2734 39.0132V36.9727Z" fill="#010412"/>
<path d="M37.7422 32.5659C37.7422 32.0161 38.1879 31.5703 38.7378 31.5703H42.3469C42.8968 31.5703 43.3425 32.0161 43.3425 32.5659V34.2272H37.7422V32.5659Z" fill="#010412"/>
<path d="M63.2734 32.5669C63.2734 32.017 63.7192 31.5713 64.2691 31.5713H67.8782C68.428 31.5713 68.8738 32.017 68.8738 32.5669V34.2282H63.2734V32.5669Z" fill="#010412"/>
<path d="M27.3616 76.068V78.8139C27.3616 79.6834 27.0069 80.4271 26.2976 81.0449C25.5882 81.6627 24.4555 81.9716 22.8995 81.9716C21.3664 81.9716 20.2337 81.6513 19.5015 81.0106C18.7693 80.3699 18.4032 79.6147 18.4032 78.7452V76.0337C18.4032 75.1641 18.7693 74.409 19.5015 73.7683C20.2337 73.1276 21.3664 72.8073 22.8995 72.8073C24.4555 72.8073 25.5882 73.1162 26.2976 73.734C27.0069 74.3518 27.3616 75.1298 27.3616 76.068Z" fill="#B4FFAD"/>
<path d="M28.7645 59.0779V53.6891H38.6497V59.0779H28.7645ZM38.6497 81.2852H28.7645V60.0046H38.6497V81.2852ZM54.9879 59.4555C56.7041 59.4555 58.0541 59.6728 59.0381 60.1076C60.022 60.5424 60.7428 61.1487 61.2005 61.9267C61.681 62.6819 61.9899 63.5628 62.1272 64.5696C62.2645 65.5765 62.3331 66.6519 62.3331 67.7961V81.2852L52.2764 81.3195V68.5855C52.2764 68.5168 52.2306 68.3452 52.1391 68.0706C52.0704 67.7961 51.8073 67.6588 51.3496 67.6588C50.892 67.6588 50.6174 67.7961 50.5259 68.0706C50.4572 68.3452 50.4229 68.5168 50.4229 68.5855V81.2852H40.2632V67.4871C40.2632 66.7549 40.2632 65.6909 40.2632 64.2951C40.286 62.8992 40.206 61.4691 40.0229 60.0046H48.741C49.0156 61.4462 49.1529 62.9336 49.1529 64.4667H49.4618C49.4618 63.5743 49.6449 62.7505 50.011 61.9954C50.3771 61.2403 50.9606 60.6339 51.7615 60.1763C52.5853 59.6957 53.6607 59.4555 54.9879 59.4555ZM85.8994 64.604L86.071 77.338C86.0939 78.9855 85.9337 80.45 85.5905 81.7314C85.2472 83.0128 84.6294 84.0768 83.737 84.9234C82.8675 85.793 81.6318 86.4451 80.0301 86.8799C78.4283 87.3375 76.3689 87.5663 73.8518 87.5663C73.3713 87.5663 72.7421 87.5435 71.9641 87.4977C71.2089 87.4748 70.3852 87.4176 69.4928 87.3261C68.6232 87.2574 67.7652 87.1545 66.9185 87.0172C66.0719 86.9028 65.3396 86.754 64.7218 86.571L65.4769 77.1663C66.827 77.624 67.994 77.91 68.9779 78.0244C69.9847 78.1388 70.9229 78.196 71.7924 78.196C72.9137 78.196 73.9205 78.0588 74.8129 77.7842C75.7282 77.4867 76.2888 77.0176 76.4947 76.3769C76.2888 76.4684 76.0485 76.56 75.774 76.6515C75.4994 76.743 75.0989 76.8231 74.5726 76.8918C74.0692 76.9604 73.3713 76.9947 72.4789 76.9947C69.4813 76.9947 67.2274 76.3655 65.7172 75.1069C64.2298 73.8484 63.4862 72.0407 63.4862 69.6838V67.3155C63.4862 64.8442 64.0582 62.9221 65.2023 61.5492C66.3465 60.1534 68.3372 59.4555 71.1746 59.4555C72.7993 59.4555 74.0692 59.7529 74.9845 60.3479C75.8998 60.9199 76.4032 61.8695 76.4947 63.1967H76.8037C76.8037 62.6704 76.8151 62.1441 76.838 61.6178C76.8837 61.0687 76.9295 60.5309 76.9753 60.0046H86.2083C86.1167 60.7826 86.0367 61.5606 85.968 62.3386C85.9222 63.0937 85.8994 63.8489 85.8994 64.604ZM75.2591 71.1597V67.1439C75.2591 67.0524 75.2133 66.8808 75.1218 66.6291C75.0532 66.3545 74.79 66.2172 74.3324 66.2172C73.8747 66.2172 73.6001 66.3545 73.5086 66.6291C73.44 66.8808 73.4056 67.0524 73.4056 67.1439V71.1597C73.4056 71.2284 73.44 71.4 73.5086 71.6746C73.6001 71.9492 73.8747 72.0865 74.3324 72.0865C74.79 72.0865 75.0532 71.9492 75.1218 71.6746C75.2133 71.4 75.2591 71.2284 75.2591 71.1597Z" fill="white"/>
</svg>
