<svg width="100" height="100" viewBox="0 0 100 100" fill="none" xmlns="http://www.w3.org/2000/svg">
<mask id="mask0_3345_714" style="mask-type:alpha" maskUnits="userSpaceOnUse" x="16" y="3" width="68" height="94">
<path fill-rule="evenodd" clip-rule="evenodd" d="M51.5635 27.3301C57.6204 30.5443 64.8826 36.95 66.1385 43.8227C65.7539 51.1484 62.7443 59.5074 58.6667 69.1443L64.0042 70.7509L70.399 69.8895C72.0771 63.9607 74.3485 53.1952 73.3837 43.0904C70.2082 36.8179 59.5301 29.0202 51.5625 27.3301H51.5635Z" fill="#CF6AF7"/>
<path fill-rule="evenodd" clip-rule="evenodd" d="M53.9973 28.6993C45.5836 24.3533 36.4952 22.9941 26.6607 23.8963C23.9581 28.8185 21.0708 37.4111 20.7031 43.0348C23.2288 40.7088 27.8907 35.2798 30.9043 33.0065C38.7477 29.7614 45.1663 30.0873 53.9963 28.6993H53.9973Z" fill="#CF6AF7"/>
<path fill-rule="evenodd" clip-rule="evenodd" d="M56.6041 27.8643C49.4612 28.2637 42.8647 30.3065 36.8545 35.0539C35.7655 39.5816 37.4437 46.3917 39.8571 50.9483C40.9143 47.1766 42.0996 41.4774 44.0193 38.2413C48.8908 33.2147 50.5302 31.8177 56.6031 27.8643H56.6041Z" fill="#F3C63E"/>
<path fill-rule="evenodd" clip-rule="evenodd" d="M50.3906 30.6522C57.6786 25.2541 64.9089 19.7337 73.0544 16.127C77.0695 19.1365 79.8237 23.4487 82.252 28.0977C79.3647 27.2323 76.4038 26.4185 73.1488 25.8134C65.6929 26.5288 58.0472 28.5538 50.3906 30.6512V30.6522Z" fill="#F3C63E"/>
<path fill-rule="evenodd" clip-rule="evenodd" d="M55.2929 27.916C49.0641 20.4929 42.7051 13.1811 34.8667 7.11621C28.3318 8.77749 22.8939 12.3316 17.7422 16.3765C21.8914 16.5782 26.1151 16.8653 30.635 17.4913C38.1942 20.4412 45.5587 24.3381 52.8745 28.4664L55.2929 27.916Z" fill="#F3C63E"/>
<path fill-rule="evenodd" clip-rule="evenodd" d="M53.4912 29.3567C52.0207 22.9629 51.196 20.5435 52.3714 13.4255C55.8549 10.0969 63.596 5.76688 68.8361 3.92676C67.0238 5.78278 60.5178 14.1657 58.7164 16.3734C56.7531 21.7368 56.9538 22.636 55.2916 27.916C55.1773 28.2806 53.6164 28.9503 53.4912 29.3567Z" fill="#CF6AF7"/>
<path opacity="0.3" fill-rule="evenodd" clip-rule="evenodd" d="M16.2422 70.7503C30.6631 84.5502 49.3257 95.4578 57.6013 96.0321L55.3012 88.2702L56.1894 81.4691L52.1395 77.5961L50.1116 70.7503L41.7287 68.2266L16.2432 70.7503H16.2422Z" fill="#FF003C"/>
<path fill-rule="evenodd" clip-rule="evenodd" d="M16.2422 70.7507C30.6631 63.6674 49.3257 58.0675 57.6013 57.7734C68.3261 60.6807 77.6837 66.6174 83.683 70.3731C83.8022 70.4477 83.7367 70.6245 83.7615 70.7507H50.1106L41.7277 68.227L16.2422 70.7507Z" fill="white"/>
<path fill-rule="evenodd" clip-rule="evenodd" d="M59.9531 70.7512L70.7345 72.8029L81.1116 70.7512L71.7122 69.2012L59.9531 70.7512Z" fill="white"/>
</mask>
<g mask="url(#mask0_3345_714)">
<path d="M2.51562 3.58398H97.3672V96.916H2.51562V3.58398Z" fill="url(#paint0_radial_3345_714)"/>
</g>
<path d="M55.2476 88.2738L57.5608 96.043C75.2914 83.6926 82.3781 74.0174 83.7051 70.7236H81.0659L70.7098 72.7822L59.9665 70.7669L50.1094 70.7498L52.0931 77.5649L56.1441 81.4429L55.2476 88.2738Z" fill="#9ED7FF"/>
<defs>
<radialGradient id="paint0_radial_3345_714" cx="0" cy="0" r="1" gradientUnits="userSpaceOnUse" gradientTransform="translate(11.7627 -9.05301) scale(145.081 120.843)">
<stop stop-color="#FFE500"/>
<stop offset="0.56" stop-color="#CF68FB"/>
<stop offset="1" stop-color="#4FFFBC"/>
</radialGradient>
</defs>
</svg>
