<svg width="1000" height="1000" viewBox="0 0 1000 1000" fill="none" xmlns="http://www.w3.org/2000/svg">
<g clip-path="url(#clip0_3412_395)">
<g filter="url(#filter0_d_3412_395)">
<rect x="55" y="55" width="890" height="890" rx="272.4" fill="url(#paint0_linear_3412_395)"/>
</g>
<g filter="url(#filter1_d_3412_395)">
<path d="M315.111 237.13C334.2 204.066 381.925 204.066 401.014 237.13L483.844 380.595C502.934 413.659 479.071 454.99 440.892 454.99H275.233C237.054 454.99 213.191 413.659 232.281 380.595L315.111 237.13Z" fill="white"/>
</g>
<g filter="url(#filter2_d_3412_395)">
<path d="M529.438 253.713C529.438 230.212 548.489 211.16 571.991 211.16H664.617C725.269 211.16 774.438 260.328 774.438 320.98V346.34C774.438 406.992 725.269 456.16 664.617 456.16H571.991C548.489 456.16 529.438 437.109 529.438 413.607V253.713Z" fill="white"/>
</g>
<g filter="url(#filter3_d_3412_395)">
<path d="M774.445 731.974C774.445 763.381 748.985 788.842 717.577 788.842L372.33 788.842C291.274 788.842 225.565 723.133 225.565 642.077V642.077C225.565 561.021 291.274 495.312 372.33 495.312L717.577 495.312C748.985 495.312 774.445 520.773 774.445 552.18L774.445 731.974Z" fill="white"/>
</g>
</g>
<defs>
<filter id="filter0_d_3412_395" x="-57.1" y="-11.1" width="1114.2" height="1114.2" filterUnits="userSpaceOnUse" color-interpolation-filters="sRGB">
<feFlood flood-opacity="0" result="BackgroundImageFix"/>
<feColorMatrix in="SourceAlpha" type="matrix" values="0 0 0 0 0 0 0 0 0 0 0 0 0 0 0 0 0 0 127 0" result="hardAlpha"/>
<feMorphology radius="29" operator="erode" in="SourceAlpha" result="effect1_dropShadow_3412_395"/>
<feOffset dy="46"/>
<feGaussianBlur stdDeviation="70.55"/>
<feComposite in2="hardAlpha" operator="out"/>
<feColorMatrix type="matrix" values="0 0 0 0 0.501961 0 0 0 0 0.368627 0 0 0 0 0.956863 0 0 0 1 0"/>
<feBlend mode="normal" in2="BackgroundImageFix" result="effect1_dropShadow_3412_395"/>
<feBlend mode="normal" in="SourceGraphic" in2="effect1_dropShadow_3412_395" result="shape"/>
</filter>
<filter id="filter1_d_3412_395" x="207.998" y="212.332" width="300.128" height="277.787" filterUnits="userSpaceOnUse" color-interpolation-filters="sRGB">
<feFlood flood-opacity="0" result="BackgroundImageFix"/>
<feColorMatrix in="SourceAlpha" type="matrix" values="0 0 0 0 0 0 0 0 0 0 0 0 0 0 0 0 0 0 127 0" result="hardAlpha"/>
<feOffset dy="17.5642"/>
<feGaussianBlur stdDeviation="8.78208"/>
<feComposite in2="hardAlpha" operator="out"/>
<feColorMatrix type="matrix" values="0 0 0 0 0.47451 0 0 0 0 0.376471 0 0 0 0 0.960784 0 0 0 0.25 0"/>
<feBlend mode="normal" in2="BackgroundImageFix" result="effect1_dropShadow_3412_395"/>
<feBlend mode="normal" in="SourceGraphic" in2="effect1_dropShadow_3412_395" result="shape"/>
</filter>
<filter id="filter2_d_3412_395" x="512.416" y="211.16" width="279.042" height="279.042" filterUnits="userSpaceOnUse" color-interpolation-filters="sRGB">
<feFlood flood-opacity="0" result="BackgroundImageFix"/>
<feColorMatrix in="SourceAlpha" type="matrix" values="0 0 0 0 0 0 0 0 0 0 0 0 0 0 0 0 0 0 127 0" result="hardAlpha"/>
<feOffset dy="17.0212"/>
<feGaussianBlur stdDeviation="8.5106"/>
<feComposite in2="hardAlpha" operator="out"/>
<feColorMatrix type="matrix" values="0 0 0 0 0.47451 0 0 0 0 0.376471 0 0 0 0 0.960784 0 0 0 0.25 0"/>
<feBlend mode="normal" in2="BackgroundImageFix" result="effect1_dropShadow_3412_395"/>
<feBlend mode="normal" in="SourceGraphic" in2="effect1_dropShadow_3412_395" result="shape"/>
</filter>
<filter id="filter3_d_3412_395" x="202.815" y="495.312" width="594.377" height="339.024" filterUnits="userSpaceOnUse" color-interpolation-filters="sRGB">
<feFlood flood-opacity="0" result="BackgroundImageFix"/>
<feColorMatrix in="SourceAlpha" type="matrix" values="0 0 0 0 0 0 0 0 0 0 0 0 0 0 0 0 0 0 127 0" result="hardAlpha"/>
<feOffset dy="22.7473"/>
<feGaussianBlur stdDeviation="11.3736"/>
<feComposite in2="hardAlpha" operator="out"/>
<feColorMatrix type="matrix" values="0 0 0 0 0.47451 0 0 0 0 0.376471 0 0 0 0 0.960784 0 0 0 0.25 0"/>
<feBlend mode="normal" in2="BackgroundImageFix" result="effect1_dropShadow_3412_395"/>
<feBlend mode="normal" in="SourceGraphic" in2="effect1_dropShadow_3412_395" result="shape"/>
</filter>
<linearGradient id="paint0_linear_3412_395" x1="69.1653" y1="67.2487" x2="950.389" y2="906.659" gradientUnits="userSpaceOnUse">
<stop stop-color="#6964F2"/>
<stop offset="1" stop-color="#855DF5"/>
</linearGradient>
<clipPath id="clip0_3412_395">
<rect width="1000" height="1000" fill="white"/>
</clipPath>
</defs>
</svg>
