<svg width="100" height="100" viewBox="0 0 100 100" fill="none" xmlns="http://www.w3.org/2000/svg">
<path d="M77.9743 83.5692C77.9743 86.6592 80.4792 89.1641 83.5692 89.1641C86.6592 89.1641 89.1641 86.6592 89.1641 83.5692C89.1641 80.4792 86.6592 77.9743 83.5692 77.9743C80.4792 77.9743 77.9743 80.4792 77.9743 83.5692Z" stroke="white" stroke-width="11.1897" stroke-linecap="round" stroke-linejoin="round"/>
<path d="M44.4051 83.5692C44.4051 86.6592 46.91 89.1641 50 89.1641C53.09 89.1641 55.5949 86.6592 55.5949 83.5692C55.5949 80.4792 53.09 77.9743 50 77.9743C46.91 77.9743 44.4051 80.4792 44.4051 83.5692Z" stroke="white" stroke-width="11.1897" stroke-linecap="round" stroke-linejoin="round"/>
<path d="M10.8359 83.5692C10.8359 86.6592 13.3408 89.1641 16.4308 89.1641C19.5208 89.1641 22.0257 86.6592 22.0257 83.5692C22.0257 80.4792 19.5208 77.9743 16.4308 77.9743C13.3408 77.9743 10.8359 80.4792 10.8359 83.5692Z" stroke="white" stroke-width="11.1897" stroke-linecap="round" stroke-linejoin="round"/>
<path d="M77.9743 50C77.9743 53.09 80.4792 55.5949 83.5692 55.5949C86.6592 55.5949 89.1641 53.09 89.1641 50C89.1641 46.91 86.6592 44.4051 83.5692 44.4051C80.4792 44.4051 77.9743 46.91 77.9743 50Z" stroke="white" stroke-width="11.1897" stroke-linecap="round" stroke-linejoin="round"/>
<path d="M44.4051 50C44.4051 53.09 46.91 55.5949 50 55.5949C53.09 55.5949 55.5949 53.09 55.5949 50C55.5949 46.91 53.09 44.4051 50 44.4051C46.91 44.4051 44.4051 46.91 44.4051 50Z" stroke="white" stroke-width="11.1897" stroke-linecap="round" stroke-linejoin="round"/>
<path d="M10.8359 50C10.8359 53.09 13.3408 55.5949 16.4308 55.5949C19.5208 55.5949 22.0257 53.09 22.0257 50C22.0257 46.91 19.5208 44.4051 16.4308 44.4051C13.3408 44.4051 10.8359 46.91 10.8359 50Z" stroke="white" stroke-width="11.1897" stroke-linecap="round" stroke-linejoin="round"/>
<path d="M77.9743 16.4308C77.9743 19.5208 80.4792 22.0257 83.5692 22.0257C86.6592 22.0257 89.1641 19.5208 89.1641 16.4308C89.1641 13.3408 86.6592 10.8359 83.5692 10.8359C80.4792 10.8359 77.9743 13.3408 77.9743 16.4308Z" stroke="white" stroke-width="11.1897" stroke-linecap="round" stroke-linejoin="round"/>
<path d="M44.4051 16.4308C44.4051 19.5208 46.91 22.0257 50 22.0257C53.09 22.0257 55.5949 19.5208 55.5949 16.4308C55.5949 13.3408 53.09 10.8359 50 10.8359C46.91 10.8359 44.4051 13.3408 44.4051 16.4308Z" stroke="white" stroke-width="11.1897" stroke-linecap="round" stroke-linejoin="round"/>
<path d="M10.8359 16.4308C10.8359 19.5208 13.3408 22.0257 16.4308 22.0257C19.5208 22.0257 22.0257 19.5208 22.0257 16.4308C22.0257 13.3408 19.5208 10.8359 16.4308 10.8359C13.3408 10.8359 10.8359 13.3408 10.8359 16.4308Z" stroke="white" stroke-width="11.1897" stroke-linecap="round" stroke-linejoin="round"/>
</svg>
