<svg width="100" height="100" viewBox="0 0 100 100" fill="none" xmlns="http://www.w3.org/2000/svg">
<path d="M88.2812 31.5791V48.4668L88.2578 48.5107L82.9395 58.4414L85.4199 74.8672L85.4346 74.9668L85.3633 75.0381L79.4131 80.9893L79.3545 81.0479H68.0107L72.5176 85.5547L72.627 85.6631L72.5498 85.7959L66.3477 96.5381L66.2168 96.7646L66.0322 96.5801L61.0967 91.6436H55.0479L49.7344 96.957L49.5928 96.8154L44.499 91.7227H38.6904L33.9521 96.7715L33.7578 96.9785L33.6279 96.7266L27.8057 85.4785L27.7412 85.3535L27.8369 85.25L31.8535 80.9062H20.0752L14.1611 74.9922L14.1797 74.8887L17.2432 57.8809L11.7451 48.3594L11.7188 48.3125V30.6943L32.9365 9.47656H66.1787L88.2812 31.5791ZM44.168 74.6797H55.6494L49.9326 64.7783L44.168 74.6797Z" fill="white"/>
<path d="M23.2266 61.1128V53.0186L44.0054 58.6213L39.5112 66.4054H28.5192L23.2266 61.1128Z" fill="#FF0000"/>
<path d="M76.8359 61.1128V53.0186L56.0571 58.6213L60.5513 66.4054H71.5433L76.8359 61.1128Z" fill="#FF0000"/>
<path d="M29.6929 27.9918L46.5869 3.2286L69.5293 3.02051L47.4212 22.5813L63.4809 23.2056L29.4844 50.674L43.8755 29.0322L29.6929 27.9918Z" fill="#F40000"/>
</svg>
