<svg width="100" height="100" viewBox="0 0 100 100" fill="none" xmlns="http://www.w3.org/2000/svg">
<path d="M58.8067 13.0759L41.2031 7.22266V86.9239L58.8067 92.7772V13.0759V13.0759Z" fill="#22EFA9"/>
<path d="M90.362 9.3344C88.0651 7.6901 85.1186 7.24812 82.4404 8.14614L67.6094 13.0752V92.7765L87.9855 85.999C91.588 84.8033 94.0182 81.4329 94.0148 77.6372V16.508C94.026 13.6674 92.6658 10.9961 90.362 9.3344Z" fill="#22EFA9"/>
<path d="M32.3977 7.22266L12.0215 14.0001C8.41902 15.1958 5.98881 18.5662 5.99226 22.3619V83.4912C5.98101 86.3317 7.34125 89.003 9.645 90.6647C11.1585 91.713 12.953 92.2805 14.7941 92.2931C15.7363 92.3012 16.6732 92.1525 17.5666 91.853L32.3977 86.9239V7.22266Z" fill="#22EFA9"/>
</svg>
