<svg xmlns="http://www.w3.org/2000/svg" width="24" height="24" viewBox="0 0 24 24">
              <title>duplicate-plus</title>
              <g fill="none">
                <path d="M9.27295 1.65683C11.4364 1.07713 12.5183 0.786462 13.4575 0.985931C14.2838 1.16156 15.0339 1.59451 15.5991 2.22226C16.2417 2.93591 16.531 4.01838 17.1108 6.18222L17.939 9.27304C18.3564 10.8309 18.6222 11.828 18.6646 12.6148C19.4421 12.8889 20.0003 13.6283 20.0005 14.4996C20.0005 15.6041 19.1049 16.4994 18.0005 16.4996H16.5034V17.9996C16.5034 19.1042 15.608 19.9996 14.5034 19.9996C13.399 19.9994 12.5034 19.104 12.5034 17.9996V17.3541L10.3228 17.9391C8.15928 18.5188 7.07739 18.8094 6.13818 18.61C5.31193 18.4343 4.56181 18.0014 3.99658 17.3736C3.35402 16.66 3.06466 15.5775 2.48486 13.4137L1.65674 10.3228C1.07703 8.15936 0.786368 7.07749 0.98584 6.13828C1.16147 5.31202 1.59442 4.5619 2.22217 3.99667C2.93582 3.35414 4.01832 3.06475 6.18213 2.48495L9.27295 1.65683Z" fill="url(#1752500502783-7184027_duplicate-plus_existing_1_xpbxvqiwo)" data-glass="origin" mask="url(#1752500502783-7184027_duplicate-plus_mask_ictnb4rh1)"></path>
                <path d="M9.27295 1.65683C11.4364 1.07713 12.5183 0.786462 13.4575 0.985931C14.2838 1.16156 15.0339 1.59451 15.5991 2.22226C16.2417 2.93591 16.531 4.01838 17.1108 6.18222L17.939 9.27304C18.3564 10.8309 18.6222 11.828 18.6646 12.6148C19.4421 12.8889 20.0003 13.6283 20.0005 14.4996C20.0005 15.6041 19.1049 16.4994 18.0005 16.4996H16.5034V17.9996C16.5034 19.1042 15.608 19.9996 14.5034 19.9996C13.399 19.9994 12.5034 19.104 12.5034 17.9996V17.3541L10.3228 17.9391C8.15928 18.5188 7.07739 18.8094 6.13818 18.61C5.31193 18.4343 4.56181 18.0014 3.99658 17.3736C3.35402 16.66 3.06466 15.5775 2.48486 13.4137L1.65674 10.3228C1.07703 8.15936 0.786368 7.07749 0.98584 6.13828C1.16147 5.31202 1.59442 4.5619 2.22217 3.99667C2.93582 3.35414 4.01832 3.06475 6.18213 2.48495L9.27295 1.65683Z" fill="url(#1752500502783-7184027_duplicate-plus_existing_1_xpbxvqiwo)" data-glass="clone" filter="url(#1752500502783-7184027_duplicate-plus_filter_r2azwvgyt)" clip-path="url(#1752500502783-7184027_duplicate-plus_clipPath_ka0dkwujy)"></path>
                <path data-figma-bg-blur-radius="3" d="M16.0996 6.5C18.3398 6.5 19.4608 6.49957 20.3164 6.93555C21.0689 7.31901 21.681 7.93109 22.0645 8.68359C22.5004 9.53924 22.5 10.6602 22.5 12.9004V16.0996C22.5 18.3398 22.5004 19.4608 22.0645 20.3164C21.681 21.0689 21.0689 21.681 20.3164 22.0645C19.4608 22.5004 18.3398 22.5 16.0996 22.5H12.9004C10.6602 22.5 9.53924 22.5004 8.68359 22.0645C7.93109 21.681 7.31901 21.0689 6.93555 20.3164C6.49957 19.4608 6.5 18.3398 6.5 16.0996V12.9004C6.5 10.6602 6.49957 9.53924 6.93555 8.68359C7.31902 7.93109 7.93109 7.31901 8.68359 6.93555C9.53924 6.49957 10.6602 6.5 12.9004 6.5H16.0996ZM14.5039 10C13.9516 10 13.5039 10.4477 13.5039 11V13.5H11C10.4478 13.5001 10 13.9478 10 14.5C10 15.0522 10.4478 15.4999 11 15.5H13.5039V18C13.5039 18.5523 13.9516 19 14.5039 19C15.0562 19 15.5039 18.5523 15.5039 18V15.5H18C18.5523 15.5 19 15.0523 19 14.5C19 13.9477 18.5523 13.5 18 13.5H15.5039V11C15.5039 10.4477 15.0562 10 14.5039 10Z" fill="url(#1752500502783-7184027_duplicate-plus_existing_2_n0by7x6te)" data-glass="blur"></path>
                <path d="M16.0996 21.75V22.5H12.9004V21.75H16.0996ZM21.75 16.0996V12.9004C21.75 11.768 21.7497 10.9633 21.6982 10.334C21.6475 9.71336 21.5506 9.32889 21.3955 9.02441C21.0839 8.41304 20.587 7.91605 19.9756 7.60449C19.6711 7.44936 19.2866 7.35247 18.666 7.30176C18.0367 7.25035 17.232 7.25 16.0996 7.25H12.9004C11.768 7.25 10.9633 7.25035 10.334 7.30176C9.71336 7.35247 9.32889 7.44936 9.02441 7.60449C8.41304 7.91605 7.91605 8.41304 7.60449 9.02441C7.44936 9.32889 7.35247 9.71336 7.30176 10.334C7.25035 10.9633 7.25 11.768 7.25 12.9004V16.0996C7.25 17.232 7.25035 18.0367 7.30176 18.666C7.35247 19.2866 7.44936 19.6711 7.60449 19.9756C7.91605 20.587 8.41304 21.0839 9.02441 21.3955C9.32889 21.5506 9.71336 21.6475 10.334 21.6982C10.9633 21.7497 11.768 21.75 12.9004 21.75V22.5L11.416 22.4932C10.2243 22.4744 9.46088 22.4041 8.84766 22.1406L8.68359 22.0645C8.02512 21.7289 7.47413 21.2183 7.08984 20.5918L6.93555 20.3164C6.49957 19.4608 6.5 18.3398 6.5 16.0996V12.9004C6.5 10.6602 6.49957 9.53924 6.93555 8.68359C7.31902 7.93109 7.93109 7.31902 8.68359 6.93555C9.32525 6.60861 10.1161 6.52728 11.416 6.50684L12.9004 6.5H16.0996C18.3398 6.5 19.4608 6.49957 20.3164 6.93555C21.0689 7.31902 21.681 7.93109 22.0645 8.68359C22.5004 9.53924 22.5 10.6602 22.5 12.9004V16.0996C22.5 18.3398 22.5004 19.4608 22.0645 20.3164L21.9102 20.5918C21.5259 21.2183 20.9749 21.7289 20.3164 22.0645L20.1523 22.1406C19.316 22.4999 18.1999 22.5 16.0996 22.5V21.75C17.232 21.75 18.0367 21.7497 18.666 21.6982C19.2866 21.6475 19.6711 21.5506 19.9756 21.3955C20.587 21.0839 21.0839 20.587 21.3955 19.9756C21.5506 19.6711 21.6475 19.2866 21.6982 18.666C21.7497 18.0367 21.75 17.232 21.75 16.0996Z" fill="url(#1752500502783-7184027_duplicate-plus_existing_3_twlb7crh1)"></path>
                <defs>
                  <linearGradient id="1752500502783-7184027_duplicate-plus_existing_1_xpbxvqiwo" x1="10.212" y1=".923" x2="10.212" y2="19.5" gradientUnits="userSpaceOnUse">
                    <stop stop-color="#575757"></stop>
                    <stop offset="1" stop-color="#151515"></stop>
                  </linearGradient>
                  <linearGradient id="1752500502783-7184027_duplicate-plus_existing_2_n0by7x6te" x1="14.5" y1="6.5" x2="14.5" y2="22.5" gradientUnits="userSpaceOnUse">
                    <stop stop-color="#E3E3E5" stop-opacity=".6"></stop>
                    <stop offset="1" stop-color="#BBBBC0" stop-opacity=".6"></stop>
                  </linearGradient>
                  <linearGradient id="1752500502783-7184027_duplicate-plus_existing_3_twlb7crh1" x1="14.5" y1="6.5" x2="14.5" y2="16.5" gradientUnits="userSpaceOnUse">
                    <stop stop-color="#fff" stop-opacity="1"></stop>
                    <stop offset="1" stop-color="#fff" stop-opacity="0"></stop>
                  </linearGradient>
                  <filter id="1752500502783-7184027_duplicate-plus_filter_r2azwvgyt" x="-100%" y="-100%" width="400%" height="400%" filterUnits="objectBoundingBox" primitiveUnits="userSpaceOnUse">
                    <feGaussianBlur stdDeviation="2" x="0%" y="0%" width="100%" height="100%" in="SourceGraphic" edgeMode="none" result="blur"></feGaussianBlur>
                  </filter>
                  <clipPath id="1752500502783-7184027_duplicate-plus_clipPath_ka0dkwujy">
                    <path data-figma-bg-blur-radius="3" d="M16.0996 6.5C18.3398 6.5 19.4608 6.49957 20.3164 6.93555C21.0689 7.31901 21.681 7.93109 22.0645 8.68359C22.5004 9.53924 22.5 10.6602 22.5 12.9004V16.0996C22.5 18.3398 22.5004 19.4608 22.0645 20.3164C21.681 21.0689 21.0689 21.681 20.3164 22.0645C19.4608 22.5004 18.3398 22.5 16.0996 22.5H12.9004C10.6602 22.5 9.53924 22.5004 8.68359 22.0645C7.93109 21.681 7.31901 21.0689 6.93555 20.3164C6.49957 19.4608 6.5 18.3398 6.5 16.0996V12.9004C6.5 10.6602 6.49957 9.53924 6.93555 8.68359C7.31902 7.93109 7.93109 7.31901 8.68359 6.93555C9.53924 6.49957 10.6602 6.5 12.9004 6.5H16.0996ZM14.5039 10C13.9516 10 13.5039 10.4477 13.5039 11V13.5H11C10.4478 13.5001 10 13.9478 10 14.5C10 15.0522 10.4478 15.4999 11 15.5H13.5039V18C13.5039 18.5523 13.9516 19 14.5039 19C15.0562 19 15.5039 18.5523 15.5039 18V15.5H18C18.5523 15.5 19 15.0523 19 14.5C19 13.9477 18.5523 13.5 18 13.5H15.5039V11C15.5039 10.4477 15.0562 10 14.5039 10Z" fill="url(#1752500502783-7184027_duplicate-plus_existing_2_n0by7x6te)"></path>
                  </clipPath>
                  <mask id="1752500502783-7184027_duplicate-plus_mask_ictnb4rh1">
                    <rect width="100%" height="100%" fill="#FFF"></rect>
                    <path data-figma-bg-blur-radius="3" d="M16.0996 6.5C18.3398 6.5 19.4608 6.49957 20.3164 6.93555C21.0689 7.31901 21.681 7.93109 22.0645 8.68359C22.5004 9.53924 22.5 10.6602 22.5 12.9004V16.0996C22.5 18.3398 22.5004 19.4608 22.0645 20.3164C21.681 21.0689 21.0689 21.681 20.3164 22.0645C19.4608 22.5004 18.3398 22.5 16.0996 22.5H12.9004C10.6602 22.5 9.53924 22.5004 8.68359 22.0645C7.93109 21.681 7.31901 21.0689 6.93555 20.3164C6.49957 19.4608 6.5 18.3398 6.5 16.0996V12.9004C6.5 10.6602 6.49957 9.53924 6.93555 8.68359C7.31902 7.93109 7.93109 7.31901 8.68359 6.93555C9.53924 6.49957 10.6602 6.5 12.9004 6.5H16.0996ZM14.5039 10C13.9516 10 13.5039 10.4477 13.5039 11V13.5H11C10.4478 13.5001 10 13.9478 10 14.5C10 15.0522 10.4478 15.4999 11 15.5H13.5039V18C13.5039 18.5523 13.9516 19 14.5039 19C15.0562 19 15.5039 18.5523 15.5039 18V15.5H18C18.5523 15.5 19 15.0523 19 14.5C19 13.9477 18.5523 13.5 18 13.5H15.5039V11C15.5039 10.4477 15.0562 10 14.5039 10Z" fill="#000"></path>
                  </mask>
                </defs>
              </g>
            </svg>