<svg width="146" height="146" viewBox="0 0 146 146" fill="none" xmlns="http://www.w3.org/2000/svg">
<path d="M85.4833 113.517C79.3657 124.113 64.0718 124.112 57.9542 113.517L35.6868 74.9483C29.5692 64.3523 37.2162 51.1074 49.4514 51.1074L93.9862 51.1074C106.221 51.1074 113.868 64.3524 107.751 74.9483L85.4833 113.517Z" fill="#2A5225"/>
<path d="M85.7489 103.884C79.6313 114.48 64.3374 114.48 58.2198 103.884L35.9524 65.3155C29.8349 54.7195 37.4818 41.4746 49.717 41.4746L94.2518 41.4746C106.487 41.4746 114.134 54.7195 108.016 65.3155L85.7489 103.884Z" fill="#308830"/>
<path d="M85.9989 92.9375C79.8813 103.533 64.5874 103.533 58.4698 92.9374L36.2024 54.3692C30.0849 43.7732 37.7318 30.5283 49.967 30.5283L94.5018 30.5283C106.737 30.5283 114.384 43.7733 108.266 54.3692L85.9989 92.9375Z" fill="#00FF00"/>
</svg>
