<svg width="100" height="100" viewBox="0 0 100 100" fill="none" xmlns="http://www.w3.org/2000/svg">
<path d="M85.9463 75.376H14.0537C12.3111 75.376 10.8984 76.7886 10.8984 78.5312V91.5879C10.8984 93.3305 12.3111 94.7432 14.0537 94.7432H85.9463C87.6889 94.7432 89.1016 93.3305 89.1016 91.5879V78.5312C89.1016 76.7886 87.6889 75.376 85.9463 75.376Z" fill="#5D5D91"/>
<path d="M50.0053 2.74902C67.0081 2.74902 80.8153 16.5562 80.8153 33.559V74.0526H19.1953V33.559C19.1953 16.5562 33.0025 2.74902 50.0053 2.74902Z" fill="#5D5D91"/>
<path d="M58.422 58.0997C58.5753 51.1356 59.5356 53.9922 64.3048 53.1288C70.7202 51.9587 67.3713 45.858 67.4197 41.92C75.5862 12.5787 24.941 12.1026 32.5264 41.6295C32.6636 45.3577 29.5407 50.9177 34.5842 52.8948C36.997 53.8389 40.8221 51.9183 41.4999 55.1623C42.0325 57.7123 40.1442 63.9341 42.9686 64.9024C43.6061 65.1203 55.638 65.201 56.5014 65.0235C59.5921 64.3698 58.3574 60.5448 58.4139 58.1078L58.422 58.0997Z" fill="#342F52"/>
<path d="M57.4267 37.4258C66.6584 36.8045 65.6739 49.8531 57.1362 48.3118C51.8505 47.3596 49.93 37.9342 57.4267 37.4258Z" fill="#B1CA4A" stroke="#5D6191" stroke-width="0.806967" stroke-miterlimit="10"/>
<path d="M41.3888 37.4253C50.0314 36.7071 48.7806 47.3672 42.7122 48.3113C34.6587 49.5621 33.5854 38.0709 41.3888 37.4253Z" fill="#B1CA4A" stroke="#5D6191" stroke-width="0.806967" stroke-miterlimit="10"/>
<path d="M49.6952 46.6978C51.1154 46.4557 52.9069 50.5631 52.4146 51.7736C51.7771 53.3552 47.9844 53.3714 47.5567 51.7736C47.2662 50.6761 48.5735 46.8914 49.6871 46.6978H49.6952Z" fill="#9F9FFF"/>
<path d="M46.1094 59.5596L53.7756 59.5676" stroke="#9F9FFF" stroke-width="2.4209" stroke-linecap="round" stroke-linejoin="round"/>
<path d="M46.1094 57.0664V62.0615" stroke="#9F9FFF" stroke-width="2.4209" stroke-linecap="round" stroke-linejoin="round"/>
<path d="M53.8984 57.0664V62.0615" stroke="#9F9FFF" stroke-width="2.4209" stroke-linecap="round" stroke-linejoin="round"/>
<path d="M50.0078 57.0664V62.0615" stroke="#9F9FFF" stroke-width="2.4209" stroke-linecap="round" stroke-linejoin="round"/>
<path d="M38.8413 80.8075L37.5098 95.0827C37.3969 95.9865 37.2516 96.5191 37.0499 96.6725C36.8562 96.8258 36.2348 96.9065 35.1858 96.9065L30.344 96.9307C29.4079 96.9307 28.8107 96.7935 28.5606 96.5111C28.4234 96.3416 28.2781 95.8171 28.141 94.9456L27.5115 90.9672C27.3582 89.9988 27.1726 89.5147 26.9709 89.5147C26.7853 89.5147 26.5432 89.9424 26.2446 90.8058L24.8163 94.994C24.4612 95.9139 24.1303 96.4788 23.8318 96.6805C23.5977 96.8338 23.0571 96.9146 22.2178 96.9146L17.021 96.9388C16.4561 96.9388 16.0849 96.9065 15.8993 96.8419C15.5603 96.7047 15.3828 96.3981 15.3828 95.9301C15.3828 95.7283 15.407 95.4781 15.4554 95.1796L17.8683 82.1632C18.0055 81.6306 18.1104 81.332 18.1749 81.2513C18.2718 81.1141 18.5542 81.0012 19.0384 80.9205L20.8863 80.6622C21.0881 80.63 21.2575 80.6138 21.4028 80.6138C21.7336 80.6138 21.9354 80.7107 22.0241 80.8963C22.1129 81.0819 22.1452 81.4611 22.1291 82.0179L22.0806 88.1509C22.1129 89.0547 22.1855 89.5066 22.2904 89.5066C22.4115 89.5066 22.6778 89.1354 23.0893 88.3849L25.6636 83.5835C25.8976 83.1154 26.1155 82.8168 26.3172 82.6958C26.4705 82.599 26.8256 82.5344 27.3663 82.486L28.9318 82.3488C29.3191 82.3165 29.5774 82.3004 29.7065 82.3004C30.0777 82.3004 30.3198 82.5102 30.4327 82.9298L31.7239 88.5463C31.8288 89.0628 31.974 89.321 32.1435 89.321C32.3291 89.321 32.5066 88.9821 32.6842 88.3123L34.4434 81.0092C34.5483 80.4605 34.6774 80.1135 34.8307 79.9521C34.976 79.7988 35.2826 79.6697 35.7345 79.5809L37.7277 79.4195C38.0666 79.3872 38.2926 79.3711 38.3814 79.3711C38.7364 79.3711 38.922 79.5486 38.922 79.9118C38.922 80.0328 38.8978 80.3314 38.8494 80.7994L38.8413 80.8075Z" fill="#B1CA4A"/>
<path d="M61.5415 92.5565C61.6383 93.8799 61.259 94.9209 60.4198 95.6714C59.8307 96.1878 59.0641 96.5348 58.128 96.7285C55.8846 97.1643 52.9957 97.3256 49.4692 97.2207C48.1458 97.1885 47.3066 97.1481 46.9676 97.1078C45.4828 96.906 44.2966 96.4461 43.4089 95.7279C42.2065 94.7756 41.6094 93.3877 41.6094 91.5639C41.6094 91.3299 41.6094 91.0878 41.6336 90.8376C41.8999 87.6421 43.304 85.0759 45.8459 83.1392C47.4195 81.9207 49.3159 81.033 51.5351 80.4681C53.3427 80.0001 55.3924 79.758 57.668 79.7418C58.6041 79.7257 59.1367 79.7418 59.2577 79.7661C59.6289 79.8629 59.8226 80.1695 59.8226 80.7021L59.8468 82.2919C59.863 82.8245 59.7016 83.0908 59.3546 83.0908C59.2577 83.0908 59.1448 83.0746 58.9995 83.0423C58.8623 83.0101 58.5073 82.9374 57.9504 82.8083C57.5631 82.7115 57.208 82.655 56.8933 82.6227C56.4576 82.5743 55.9572 82.5662 55.3924 82.5985C53.6735 82.6792 52.2694 83.2037 51.18 84.1882C50.0583 85.2212 49.437 86.6011 49.3321 88.328C49.2675 89.2802 49.4934 90.063 50.0018 90.6682C50.5102 91.2734 51.2446 91.5801 52.2129 91.5801L53.617 91.5074C54.1658 91.3864 54.4724 91.0313 54.5531 90.4503L54.6257 88.4813C54.4966 88.2473 54.2949 88.102 54.0205 88.0375H52.5438C52.2613 88.0536 52.1242 87.8438 52.1242 87.408L52.5438 85.439C52.6406 85.0194 52.9715 84.7935 53.5525 84.7612L59.8226 84.39C60.3391 84.39 60.6538 84.4223 60.7668 84.4949C60.8878 84.5675 60.9685 84.8096 61.0089 85.2292L61.5495 92.5565H61.5415Z" fill="#B1CA4A"/>
<path d="M84.6196 92.5565C84.7164 93.8799 84.3371 94.9209 83.4979 95.6714C82.9088 96.1878 82.1422 96.5348 81.2061 96.7285C78.9627 97.1643 76.0738 97.3256 72.5474 97.2207C71.2239 97.1885 70.3847 97.1481 70.0458 97.1078C68.5609 96.906 67.3747 96.4461 66.487 95.7279C65.2847 94.7756 64.6875 93.3877 64.6875 91.5639C64.6875 91.3299 64.6875 91.0878 64.7117 90.8376C64.978 87.6421 66.3821 85.0759 68.9241 83.1392C70.4977 81.9207 72.394 81.033 74.6132 80.4681C76.4208 80.0001 78.4705 79.758 80.7461 79.7418C81.6822 79.7257 82.2148 79.7418 82.3359 79.7661C82.7071 79.8629 82.9007 80.1695 82.9007 80.7021L82.9249 82.2919C82.9411 82.8245 82.7797 83.0908 82.4327 83.0908C82.3359 83.0908 82.2229 83.0746 82.0776 83.0423C81.9404 83.0101 81.5854 82.9374 81.0286 82.8083C80.6412 82.7115 80.2862 82.655 79.9714 82.6227C79.5357 82.5743 79.0354 82.5662 78.4705 82.5985C76.7516 82.6792 75.3475 83.2037 74.2581 84.1882C73.1364 85.2212 72.5151 86.6011 72.4102 88.328C72.3456 89.2802 72.5716 90.063 73.0799 90.6682C73.5883 91.2734 74.3227 91.5801 75.291 91.5801L76.6952 91.5074C77.2439 91.3864 77.5505 91.0313 77.6312 90.4503L77.7039 88.4813C77.5748 88.2473 77.373 88.102 77.0986 88.0375H75.6219C75.3395 88.0536 75.2023 87.8438 75.2023 87.408L75.6219 85.439C75.7187 85.0194 76.0496 84.7935 76.6306 84.7612L82.9007 84.39C83.4172 84.39 83.7319 84.4223 83.8449 84.4949C83.9659 84.5675 84.0466 84.8096 84.087 85.2292L84.6276 92.5565H84.6196Z" fill="#B1CA4A"/>
</svg>
